<svg width="800" height="500" viewBox="0 0 800 500" xmlns="http://www.w3.org/2000/svg">
  <!-- Background -->
  <rect width="800" height="500" rx="15" fill="#2d3436"/>
  
  <!-- Title -->
  <text x="400" y="50" font-family="Arial, sans-serif" font-size="24" font-weight="bold" text-anchor="middle" fill="#55efc4">Phase 6: The 10-Property Stealth Fingerprint Bundle</text>
  
  <!-- Central Hub -->
  <circle cx="400" cy="270" r="80" fill="#0984e3" stroke="#74b9ff" stroke-width="4"/>
  <text x="400" y="265" font-family="Arial, sans-serif" font-size="16" font-weight="bold" text-anchor="middle" fill="white">CDP Injection</text>
  <text x="400" y="285" font-family="Arial, sans-serif" font-size="12" text-anchor="middle" fill="white">Signature Bundle</text>
  
  <!-- Properties (Left Side) -->
  <!-- 1 -->
  <rect x="50" y="100" width="200" height="40" rx="10" fill="#636e72" stroke="#b2bec3" stroke-width="1"/>
  <text x="150" y="125" font-family="Arial, sans-serif" font-size="12" font-weight="bold" text-anchor="middle" fill="white">1. User-Agent String</text>
  <!-- 2 -->
  <rect x="50" y="160" width="200" height="40" rx="10" fill="#636e72" stroke="#b2bec3" stroke-width="1"/>
  <text x="150" y="185" font-family="Arial, sans-serif" font-size="12" font-weight="bold" text-anchor="middle" fill="white">2. Viewport Width</text>
  <!-- 3 -->
  <rect x="50" y="220" width="200" height="40" rx="10" fill="#636e72" stroke="#b2bec3" stroke-width="1"/>
  <text x="150" y="245" font-family="Arial, sans-serif" font-size="12" font-weight="bold" text-anchor="middle" fill="white">3. Viewport Height</text>
  <!-- 4 -->
  <rect x="50" y="280" width="200" height="40" rx="10" fill="#636e72" stroke="#b2bec3" stroke-width="1"/>
  <text x="150" y="305" font-family="Arial, sans-serif" font-size="12" font-weight="bold" text-anchor="middle" fill="white">4. WebGL Renderer</text>
  <!-- 5 -->
  <rect x="50" y="340" width="200" height="40" rx="10" fill="#636e72" stroke="#b2bec3" stroke-width="1"/>
  <text x="150" y="365" font-family="Arial, sans-serif" font-size="12" font-weight="bold" text-anchor="middle" fill="white">5. WebGL Vendor</text>
  
  <!-- Properties (Right Side) -->
  <!-- 6 -->
  <rect x="550" y="100" width="200" height="40" rx="10" fill="#636e72" stroke="#b2bec3" stroke-width="1"/>
  <text x="650" y="125" font-family="Arial, sans-serif" font-size="12" font-weight="bold" text-anchor="middle" fill="white">6. Canvas Noise Jitter</text>
  <!-- 7 -->
  <rect x="550" y="160" width="200" height="40" rx="10" fill="#636e72" stroke="#b2bec3" stroke-width="1"/>
  <text x="650" y="185" font-family="Arial, sans-serif" font-size="12" font-weight="bold" text-anchor="middle" fill="white">7. Navigator Languages</text>
  <!-- 8 -->
  <rect x="550" y="220" width="200" height="40" rx="10" fill="#636e72" stroke="#b2bec3" stroke-width="1"/>
  <text x="650" y="245" font-family="Arial, sans-serif" font-size="12" font-weight="bold" text-anchor="middle" fill="white">8. Platform Signature</text>
  <!-- 9 -->
  <rect x="550" y="280" width="200" height="40" rx="10" fill="#636e72" stroke="#b2bec3" stroke-width="1"/>
  <text x="650" y="305" font-family="Arial, sans-serif" font-size="12" font-weight="bold" text-anchor="middle" fill="white">9. Hardware Concurrency</text>
  <!-- 10 -->
  <rect x="550" y="340" width="200" height="40" rx="10" fill="#636e72" stroke="#b2bec3" stroke-width="1"/>
  <text x="650" y="365" font-family="Arial, sans-serif" font-size="12" font-weight="bold" text-anchor="middle" fill="white">10. Device Memory</text>
  
  <!-- Connectors Left -->
  <line x1="250" y1="120" x2="330" y2="230" stroke="#b2bec3" stroke-width="2"/>
  <line x1="250" y1="180" x2="320" y2="250" stroke="#b2bec3" stroke-width="2"/>
  <line x1="250" y1="240" x2="320" y2="270" stroke="#b2bec3" stroke-width="2"/>
  <line x1="250" y1="300" x2="320" y2="290" stroke="#b2bec3" stroke-width="2"/>
  <line x1="250" y1="360" x2="330" y2="310" stroke="#b2bec3" stroke-width="2"/>
  
  <!-- Connectors Right -->
  <line x1="550" y1="120" x2="470" y2="230" stroke="#b2bec3" stroke-width="2"/>
  <line x1="550" y1="180" x2="480" y2="250" stroke="#b2bec3" stroke-width="2"/>
  <line x1="550" y1="240" x2="480" y2="270" stroke="#b2bec3" stroke-width="2"/>
  <line x1="550" y1="300" x2="480" y2="290" stroke="#b2bec3" stroke-width="2"/>
  <line x1="550" y1="360" x2="470" y2="310" stroke="#b2bec3" stroke-width="2"/>
  
  <!-- Bottom Caption -->
  <text x="400" y="460" font-family="Arial, sans-serif" font-size="14" font-style="italic" text-anchor="middle" fill="#b2bec3">Injection occurs on every new document load, ensuring zero red flags across all frames.</text>
</svg>
